<svg width="20" height="18" viewBox="0 0 20 18" fill="none" xmlns="http://www.w3.org/2000/svg">
<path d="M10.0009 17C9.74503 17.0001 9.49782 16.9074 9.30525 16.739C8.57966 16.1047 7.87674 15.5067 7.25817 14.9802C5.65691 13.7048 4.16127 12.3023 2.78581 10.7865C1.67695 9.59183 1.0423 8.03408 1.00085 6.4053C0.976207 4.99164 1.48598 3.62067 2.42845 2.56595C2.88583 2.0681 3.44256 1.67154 4.06275 1.40184C4.68294 1.13214 5.35283 0.995297 6.0292 1.00012C7.05552 0.995406 8.053 1.3392 8.8581 1.97514C9.29424 2.31625 9.6791 2.71815 10.0009 3.16854C10.3231 2.71841 10.7082 2.31682 11.1446 1.97605C11.9489 1.34036 12.9453 0.99628 13.9708 1.00012C14.6472 0.995297 15.3171 1.13214 15.9372 1.40184C16.5574 1.67154 17.1142 2.0681 17.5715 2.56595C18.514 3.62067 19.0238 4.99164 18.9991 6.4053C18.9585 8.03374 18.3249 9.59147 17.2169 10.7865C15.8425 12.3013 14.3481 13.7028 12.7482 14.9775C12.1287 15.5049 11.4267 16.1029 10.6975 16.7399C10.5045 16.9081 10.257 17.0005 10.0009 17V17Z" stroke="black" stroke-width="1.2"/>
</svg>
