<svg width="131" height="26" viewBox="0 0 131 26" fill="none" xmlns="http://www.w3.org/2000/svg">
<path d="M17.55 16.8C16.83 19.05 14.85 21.3 11.4 21.3C7.47 21.3 4.5 18.3 4.5 13.5C4.5 8.7 7.47 5.7 11.4 5.7C14.07 5.7 16.5 7.2 17.55 10.05H20.85C19.98 6.3 16.65 2.7 11.4 2.7C5.88 2.7 1.35 7.05 1.35 13.5C1.35 19.95 5.88 24.3 11.4 24.3C17.07 24.3 20.13 20.1 20.85 16.8H17.55ZM33.3141 24.3C38.8341 24.3 43.3641 19.95 43.3641 13.5C43.3641 7.05 38.8341 2.7 33.3141 2.7C27.7941 2.7 23.2641 7.05 23.2641 13.5C23.2641 19.95 27.7941 24.3 33.3141 24.3ZM33.3141 5.7C37.2441 5.7 40.2141 8.7 40.2141 13.5C40.2141 18.3 37.2441 21.3 33.3141 21.3C29.3841 21.3 26.4141 18.3 26.4141 13.5C26.4141 8.7 29.3841 5.7 33.3141 5.7ZM46.957 24L60.307 24L60.307 21L50.107 21V3L46.957 3L46.957 24ZM71.107 24.3C76.627 24.3 81.157 19.95 81.157 13.5C81.157 7.05 76.627 2.7 71.107 2.7C65.587 2.7 61.057 7.05 61.057 13.5C61.057 19.95 65.587 24.3 71.107 24.3ZM71.107 5.7C75.037 5.7 78.007 8.7 78.007 13.5C78.007 18.3 75.037 21.3 71.107 21.3C67.177 21.3 64.207 18.3 64.207 13.5C64.207 8.7 67.177 5.7 71.107 5.7ZM84.75 24H87.9V16.5H89.4L96.9 24L100.95 24L93.45 16.5H94.2C97.65 16.5 100.35 13.83 100.35 9.75C100.35 5.67 97.65 3 94.2 3L84.75 3V24ZM87.9 13.5V6L94.05 6C95.73 6 97.2 7.5 97.2 9.75C97.2 12 95.73 13.5 94.05 13.5L87.9 13.5ZM103.212 17.55C103.212 21.3 106.212 24.3 111.462 24.3C116.712 24.3 119.412 21.6 119.412 18.15C119.412 14.82 117.492 13.05 113.262 12.3L109.962 11.7C107.682 11.25 106.812 10.2 106.812 8.85C106.812 7.17 108.312 5.7 111.162 5.7C114.162 5.7 115.962 7.5 115.962 9.45L119.112 9.45C119.112 5.7 116.412 2.7 111.162 2.7C106.512 2.7 103.662 5.4 103.662 8.85C103.662 11.73 105.282 13.8 108.612 14.4L112.662 15.15C115.062 15.6 116.262 16.62 116.262 18.15C116.262 19.95 114.912 21.3 111.462 21.3C108.342 21.3 106.362 19.5 106.362 17.55H103.212Z" fill="#1F2020"/>
<circle cx="127" cy="6" r="4" fill="#1F2020"/>
</svg>
